HIERARCHY
ROOT Hips
{
    OFFSET 0.000000 0.000000 0.000000
    CHANNELS 6 Xposition Yposition Zposition Zrotation Xrotation Yrotation
        JOINT Chest
        {
            OFFSET -0.000000 28.502190 -0.000000
            CHANNELS 3 Zrotation Xrotation Yrotation
            JOINT Neck
            {
                OFFSET -0.000000 21.060717 0.000000
                CHANNELS 3 Zrotation Xrotation Yrotation
                JOINT Head
                {
                    OFFSET -0.000000 9.900002 0.000000
                    CHANNELS 3 Zrotation Xrotation Yrotation
                    End Site
                    {
                        OFFSET -0.000000 15.300010 0.000000
                    }
                }
            }
            JOINT LeftCollar
            {
                OFFSET -0.000000 21.060717 0.000000
                CHANNELS 3 Zrotation Xrotation Yrotation
                JOINT LeftShoulder
                {
                    OFFSET 18.000004 -0.000000 0.000000
                    CHANNELS 3 Zrotation Xrotation Yrotation
                    JOINT LeftElbow
                    {
                        OFFSET 21.585543 0.000000 0.000000
                        CHANNELS 3 Zrotation Xrotation Yrotation
                        JOINT LeftWrist
                        {
                            OFFSET 21.310946 0.000000 0.000000
                            CHANNELS 3 Zrotation Xrotation Yrotation
                            End Site
                            {
                                OFFSET 0.000000 -13.500002 0.000000
                            }
                        }
                    }
                }
            }
            JOINT RightCollar
            {
                OFFSET -0.000000 21.060717 0.000000
                CHANNELS 3 Zrotation Xrotation Yrotation
                JOINT RightShoulder
                {
                    OFFSET -18.000004 0.000000 0.000000
                    CHANNELS 3 Zrotation Xrotation Yrotation
                    JOINT RightElbow
                    {
                        OFFSET -21.585543 0.000000 0.000000
                        CHANNELS 3 Zrotation Xrotation Yrotation
                        JOINT RightWrist
                        {
                            OFFSET -21.310946 0.000000 0.000000
                            CHANNELS 3 Zrotation Xrotation Yrotation
                            End Site
                            {
                                OFFSET -0.000000 -13.500002 0.000000
                            }
                        }
                    }
                }
            }
        }
    JOINT LeftHip
    {
        OFFSET 10.800001 0.000000 0.000000
        CHANNELS 3 Zrotation Xrotation Yrotation
        JOINT LeftKnee
        {
            OFFSET -0.000000 -36.918850 0.000000
            CHANNELS 3 Zrotation Xrotation Yrotation
            JOINT LeftAnkle
            {
                OFFSET -0.000000 -34.060452 0.000000
                CHANNELS 3 Zrotation Xrotation Yrotation
                End Site
                {
                    OFFSET -0.000000 -4.500001 15.300010
                }
            }
        }
    }
    JOINT RightHip
    {
        OFFSET -10.800001 0.000000 0.000000
        CHANNELS 3 Zrotation Xrotation Yrotation
        JOINT RightKnee
        {
            OFFSET -0.000000 -36.918850 0.000000
            CHANNELS 3 Zrotation Xrotation Yrotation
            JOINT RightAnkle
            {
                OFFSET -0.000000 -34.060452 0.000000
                CHANNELS 3 Zrotation Xrotation Yrotation
                End Site
                {
                    OFFSET -0.000000 -4.500001 15.300010
                }
            }
        }
    }
}
MOTION
Frames:    12
Frame Time:    0.010000
69.212517    80.060883    -99.938980    5.060400    0.987044    -39.343777    -4.999214    -7.360554    0.038758    7.267022    14.449087    2.987315    -6.485367    -10.320452    3.536383    -19.938391    -1.088833    6.347373    -48.693115    35.370552    -5.967439    19.167967    -12.594254    -66.494553    132.576721    20.372025    44.933193    9.893924    -1.160849    -13.032347    45.417336    65.185402    25.237904    -14.451177    -2.139948    16.544283    -99.598297    -1.748132    -44.300533    -4.211410    1.635790    3.626786    3.360458    1.385019    7.537223    -20.270765    -1.482932    -19.254972    -7.533031    3.335529    -5.825798    -1.754372    -1.478698    -4.885352    3.961941    -3.773911    8.801245    
69.218987    80.059692    -99.943718    5.056807    0.983637    -39.333397    -5.020739    -7.359998    0.042595    7.239755    13.502181    3.075008    -5.174178    -8.825583    3.537570    -19.948641    -1.070056    6.154326    -48.744022    35.167828    -5.843209    18.953299    -12.421235    -66.665245    132.994339    20.267366    44.987160    9.950022    -1.145170    -13.153040    45.430531    65.081032    25.205914    -14.419632    -2.094800    16.647972    -99.634888    -1.877846    -44.414467    -4.128653    1.614685    3.500623    3.191750    1.512121    6.948330    -20.189945    -1.865388    -18.511009    -7.540813    3.333647    -5.857951    -1.715007    -1.382792    -4.084992    3.802577    -3.976429    7.955378    
69.212669    80.041893    -99.924561    5.052100    0.981699    -39.345375    -4.996467    -7.363393    0.050804    7.270760    14.404359    2.999233    -5.521009    -10.643518    3.399592    -19.968224    -1.106631    6.162987    -48.909573    34.842312    -5.585367    18.883438    -12.449966    -66.823563    132.867477    20.157146    44.797440    9.931291    -1.112098    -13.001107    45.337704    65.104706    25.286905    -14.552122    -2.163609    16.661640    -99.426636    -2.116754    -44.249264    -4.161065    1.632071    3.548455    3.241225    1.445788    7.249236    -20.137486    -1.717970    -18.870495    -7.540063    3.333124    -5.807755    -1.732041    -1.411815    -4.552015    3.919973    -3.902204    8.451936    
69.218575    80.042992    -99.927780    5.049254    0.979614    -39.345390    -5.014661    -7.357348    0.056385    7.447826    14.400265    2.911626    -5.644224    -10.662185    3.324378    -19.952147    -1.070463    5.987779    -48.954407    34.692921    -5.459169    18.724600    -12.343584    -66.910316    132.945145    20.059547    44.715141    9.968807    -1.120801    -13.123602    45.311184    65.083221    25.330696    -14.707413    -2.180882    16.684933    -99.246819    -2.282888    -44.242233    -4.150085    1.634022    3.534228    3.213856    1.452360    7.202655    -20.099943    -1.757938    -18.808086    -7.542540    3.333737    -5.798816    -1.729494    -1.410509    -4.560392    3.916896    -3.900339    8.468217    
69.226433    80.045807    -99.933014    5.046153    0.976933    -39.344929    -4.988856    -7.351486    0.069158    7.283777    14.458616    2.999673    -5.578761    -10.728005    3.403378    -19.983921    -1.053924    6.063560    -48.996357    34.520294    -5.417850    18.640093    -12.338618    -66.983955    132.931519    19.943968    44.633316    9.934495    -1.133152    -12.990480    45.308140    65.113197    25.323334    -14.852545    -2.203737    16.714645    -99.084724    -2.441203    -44.226120    -4.141269    1.638029    3.522530    3.190112    1.452760    7.174504    -20.064018    -1.786802    -18.765060    -7.545403    3.335480    -5.787580    -1.728341    -1.416654    -4.601354    3.913238    -3.885304    8.519267    
69.235603    80.049606    -99.939308    5.043009    0.973614    -39.343918    -5.000365    -7.337322    0.080035    7.376253    14.470011    2.952628    -5.629570    -10.785975    3.356586    -19.971987    -1.052667    5.966436    -49.030731    34.445168    -5.337931    18.590162    -12.347717    -67.038048    132.895752    19.856960    44.573841    9.947837    -1.164952    -13.054420    45.300915    65.123230    25.336090    -14.980537    -2.206412    16.752939    -98.938370    -2.597384    -44.224968    -4.135695    1.644556    3.513614    3.171595    1.445340    7.167646    -20.036402    -1.801354    -18.741013    -7.548797    3.338323    -5.773882    -1.728527    -1.429548    -4.670095    3.909181    -3.858585    8.598331    
69.245506    80.053703    -99.945915    5.039942    0.969679    -39.342018    -4.997271    -7.325361    0.093214    7.392091    14.490061    2.944740    -5.654860    -10.841042    3.347597    -19.970367    -1.032609    5.939057    -49.041264    34.374168    -5.303320    18.537014    -12.326558    -67.071747    132.874527    19.806423    44.531509    9.960072    -1.132616    -13.064077    45.193146    65.095039    25.437176    -14.943319    -2.230984    16.811687    -98.917244    -2.723300    -44.154079    -4.133762    1.653295    3.507673    3.159026    1.430493    7.179850    -20.027273    -1.801283    -18.730215    -7.552660    3.342052    -5.759056    -1.729955    -1.447529    -4.757369    3.904064    -3.823202    8.696509    
69.255554    80.057457    -99.952316    5.037096    0.965080    -39.338196    -4.989361    -7.310979    0.106895    7.345410    14.513843    2.968257    -5.639555    -10.897174    3.367023    -19.968861    -1.060580    5.975147    -49.053040    34.385544    -5.289883    18.584045    -12.384403    -67.077965    132.778519    19.783937    44.522079    9.947500    -1.150010    -13.031025    45.145359    65.127922    25.497271    -15.144537    -2.262590    16.855896    -98.777519    -2.850073    -44.171738    -4.135320    1.663368    3.503258    3.152187    1.410213    7.205976    -20.045731    -1.788132    -18.724813    -7.557256    3.346620    -5.746184    -1.731465    -1.467989    -4.850002    3.897305    -3.783741    8.800691    
69.265083    80.060371    -99.958328    5.034128    0.959240    -39.330193    -4.993941    -7.293261    0.116304    7.370001    14.513793    2.954858    -5.655925    -10.932726    3.352012    -19.956127    -1.031117    5.982172    -49.026367    34.409588    -5.316497    18.543455    -12.362484    -67.068123    132.817474    19.832666    44.518166    9.960555    -1.117862    -13.054694    45.018620    65.110695    25.623577    -15.096743    -2.283898    16.924377    -98.843826    -2.918899    -44.121902    -4.139396    1.674018    3.498420    3.149917    1.387903    7.237866    -20.094845    -1.765758    -18.717930    -7.563891    3.352954    -5.737556    -1.729058    -1.487210    -4.932232    3.888607    -3.745963    8.892616    
69.273445    80.062050    -99.963921    5.030430    0.951216    -39.315548    -4.997164    -7.273833    0.119914    7.373641    14.497574    2.950827    -5.658756    -10.939208    3.346431    -19.932413    -1.056754    6.028315    -49.005867    34.551697    -5.370299    18.656876    -12.463618    -67.022293    132.703552    19.870403    44.543396    9.951683    -1.156420    -13.066297    44.990143    65.165802    25.674168    -15.307170    -2.306614    16.972845    -98.798355    -2.972645    -44.167236    -4.144550    1.684836    3.491562    3.150200    1.367572    7.263336    -20.169264    -1.740458    -18.702658    -7.575975    3.362783    -5.731602    -1.714055    -1.501302    -4.990376    3.874409    -3.715720    8.951911    
69.279984    80.062370    -99.968826    5.024339    0.938341    -39.291733    -5.004423    -7.248905    0.114492    7.389050    14.451129    2.936367    -5.655827    -10.903662    3.333224    -19.898211    -1.081258    6.089090    -48.980408    34.741474    -5.440008    18.757046    -12.518573    -66.949905    132.686081    19.993196    44.607246    9.952352    -1.156576    -13.089159    44.915749    65.187027    25.750872    -15.253100    -2.336344    17.047960    -98.979721    -2.945751    -44.118752    -4.150092    1.697837    3.482883    3.151678    1.352777    7.270476    -20.256380    -1.718840    -18.677048    -7.597817    3.380933    -5.723351    -1.676906    -1.508361    -5.019635    3.848929    -3.696919    8.965743    
69.284393    80.061462    -99.972580    5.013569    0.916691    -39.256367    -5.019848    -7.216250    0.096931    7.474992    14.360279    2.881111    -5.680170    -10.813077    3.283165    -19.848635    -1.075958    6.117891    -48.936363    34.966137    -5.545660    18.854818    -12.553676    -66.854988    132.690536    20.133928    44.680824    9.971599    -1.132336    -13.167162    44.801159    65.187553    25.881941    -15.237487    -2.295701    17.128311    -99.151413    -2.907671    -44.152668    -4.156172    1.717064    3.472484    3.153177    1.345713    7.252056    -20.339470    -1.706056    -18.643349    -7.632846    3.414132    -5.708946    -1.611360    -1.509603    -5.024292    3.807091    -3.689654    8.933625    
